<svg width="438" height="469" viewBox="0 0 438 469" fill="none" xmlns="http://www.w3.org/2000/svg">
<path d="M232.139 468.243C223.859 468.259 215.613 467.181 207.617 465.036C164.949 453.535 137.097 414.011 114.338 377.862C86.8239 334.158 60.2947 289.033 35.491 243.786C11.3812 199.774 -8.96818 153.003 5.27638 109.093C14.4102 80.958 37.5259 56.5908 70.3756 40.4894C99.4462 26.2207 131.639 20.0588 162.736 14.0932C203.012 6.36977 244.658 -1.61549 286.52 1.00263C333.464 3.91996 373.638 20.7788 399.623 48.4747C431.507 82.4448 444.513 136.369 434.432 192.742L432.707 192.434L434.432 192.742C428.909 223.599 416.39 251.874 404.274 279.206C397.663 294.12 390.827 309.538 385.172 325.266C368.883 370.606 348.534 403.753 321.132 429.579C299.77 449.729 266.996 468.243 232.139 468.243ZM270.025 3.98547C234.052 3.98547 198.211 10.858 163.401 17.5342C132.53 23.453 100.571 29.5681 71.9229 43.6312C53.3928 52.7104 20.5337 73.431 8.6148 110.169C-5.2359 152.825 14.8321 198.792 38.5668 242.112C63.333 287.312 89.8247 332.363 117.339 376.001C139.742 411.58 167.115 450.477 208.564 461.651C250.707 473.002 293.122 451.207 318.769 427.054C345.758 401.621 365.817 368.904 381.918 324.106C387.61 308.267 394.475 292.792 401.104 277.812C413.136 250.696 425.58 222.645 431.028 192.153C440.912 136.864 428.215 84.053 397.11 50.8871C371.706 23.8083 332.367 7.32352 286.285 4.51839C280.884 4.14438 275.454 3.98547 270.034 3.98547H270.025Z" fill="#DCDCDC"/>
</svg>
